<svg xmlns="http://www.w3.org/2000/svg" viewBox="0 0 174.21 129.21"><defs><style>.cls-1{fill:#fff;}</style></defs><g id="Слой_2" data-name="Слой 2"><g id="Слой_4" data-name="Слой 4"><path class="cls-1" d="M3.62,41.32H60.69l-2-1.15,10,14.2a2.35,2.35,0,0,0,4.24-.55L82.69,26l1.38-3.94H79.6l4.29,15.13,6.8,24,1.57,5.55c.6,2.1,4,2.32,4.48,0l4.41-21.45,7-34.24,1.62-7.92h-4.47l5.89,36.39.82,5.06c.29,1.75,2.76,2.19,3.88,1l9.35-9.75-1.64.68H172c3,0,3-4.64,0-4.64H125.48c-1.07,0-2.35-.18-3.24.5a14.94,14.94,0,0,0-1.64,1.64l-3.19,3.33-4.76,5,3.88,1L110.63,7,109.81,2c-.36-2.26-4-2.16-4.47,0l-4.41,21.46-7,34.23-1.63,7.92h4.48L92.45,50.43l-6.8-24-1.58-5.55a2.34,2.34,0,0,0-4.47,0L69.82,48.64l-1.38,4L72.68,52,63.36,38.77c-.7-1-1.29-2-2.67-2.09H3.62c-3,0-3,4.64,0,4.64Z" transform="translate(0 -0.29)"/><path class="cls-1" d="M14.76,85.91c8,0,12.07,3.72,12.07,11.94V117c0,8.16-4,11.95-12.07,11.95H3.34v-43Zm3.65,11.88c0-3.14-1.37-4.31-4.05-4.31H11.69v27.87h2.67c2.68,0,4.05-1.18,4.05-4.31Z" transform="translate(0 -0.29)"/><path class="cls-1" d="M49.82,128.92,46.1,113.65h-.91v15.27H36.83v-43H47.54c6.91,0,10.57,2.74,10.57,9.27v8.94c0,4.11-1.37,6.78-4,8.22l5,16.58ZM45.19,93.35v13h2c1.83,0,2.55-.66,2.55-2.55v-8c0-1.76-.72-2.41-2.55-2.41Z" transform="translate(0 -0.29)"/><path class="cls-1" d="M65.18,117.23V97.53c0-8,3.91-12.21,11.81-12.21S88.87,89.5,88.87,97.53v19.7c0,8.1-4,12.27-11.88,12.27S65.18,125.33,65.18,117.23Zm15.14.59V96.94c0-2.87-1.11-4.11-3.33-4.11s-3.27,1.24-3.27,4.11v20.88c0,2.87,1,4.11,3.27,4.11S80.32,120.69,80.32,117.82Z" transform="translate(0 -0.29)"/><path class="cls-1" d="M109.21,86.09c6.91,0,10.63,2.81,10.63,9.46v8.88c0,6.59-3.72,9.53-10.63,9.53h-2.48V129.1H98.37v-43Zm2.28,9.85c0-1.76-.78-2.48-2.74-2.48h-2v13.12h2c2,0,2.74-.72,2.74-2.61Z" transform="translate(0 -0.29)"/><path class="cls-1" d="M149.06,117.23V97.59c0-8.09,3.85-12.27,11.42-12.27S172,89.24,172,96.68v6.39h-8.42V96c-.06-2.28-1-3.26-3.07-3.26s-3,1.17-3,4.11V118c0,2.94,1,4.18,3,4.18s3.07-1,3.07-3.33v-6.59H172v5.87c0,7.44-3.92,11.42-11.49,11.42S149.06,125.33,149.06,117.23Z" transform="translate(0 -0.29)"/><path class="cls-1" d="M149.09,105.07l-3.15,2.09a.62.62,0,0,0,0,1.11l3.15,2.08Z" transform="translate(0 -0.29)"/><path class="cls-1" d="M98.37,104.62l-3.79,2.52a.13.13,0,0,0,0,.24l3.79,2.52Z" transform="translate(0 -0.29)"/><path class="cls-1" d="M88.87,109.69l3.36-2.24a.45.45,0,0,0,0-.81l-3.36-2.23Z" transform="translate(0 -0.29)"/><path class="cls-1" d="M65.4,109.69,62,107.45a.46.46,0,0,1,0-.81l3.37-2.23Z" transform="translate(0 -0.29)"/><path class="cls-1" d="M36.83,109.69l-3.37-2.24a.46.46,0,0,1,0-.81l3.37-2.23Z" transform="translate(0 -0.29)"/><path class="cls-1" d="M3.62,110.05.25,107.82a.46.46,0,0,1,0-.81l3.37-2.24Z" transform="translate(0 -0.29)"/><path class="cls-1" d="M26.83,104.41l3.37,2.23a.45.45,0,0,1,0,.81l-3.37,2.24Z" transform="translate(0 -0.29)"/></g></g></svg>